<?xml version="1.0" standalone="no"?>
<!DOCTYPE svg PUBLIC "-//W3C//DTD SVG 20010904//EN"
 "http://www.w3.org/TR/2001/REC-SVG-20010904/DTD/svg10.dtd">
<svg version="1.0" xmlns="http://www.w3.org/2000/svg"
 width="1800.000000pt" height="1787.000000pt" viewBox="0 0 1800.000000 1787.000000"
 preserveAspectRatio="xMidYMid meet">

<g transform="translate(0.000000,1787.000000) scale(0.100000,-0.100000)"
fill="#000000" stroke="none">
<path d="M0 8935 l0 -8935 9000 0 9000 0 0 8935 0 8935 -9000 0 -9000 0 0
-8935z m8758 7995 c48 -36 119 -95 157 -131 l70 -67 -3 -1321 -2 -1321 -100 0
c-54 0 -111 -5 -125 -12 l-25 -11 0 -866 c0 -476 4 -861 8 -856 4 6 33 44 64
85 31 41 91 111 132 155 l74 80 52 -50 c65 -62 198 -220 212 -251 6 -13 15
-24 20 -24 5 0 7 372 6 861 -3 839 -3 861 -22 875 -14 10 -51 14 -133 14
l-113 0 0 1298 1 1297 29 -35 c121 -141 226 -300 312 -474 33 -66 61 -122 62
-123 1 -1 83 -10 181 -18 244 -22 432 -48 680 -95 1210 -228 2213 -687 3175
-1449 880 -698 1638 -1689 2080 -2721 295 -686 476 -1403 562 -2215 18 -179
22 -270 22 -615 1 -398 -1 -442 -40 -795 -47 -431 -169 -1001 -305 -1420 -247
-766 -592 -1430 -1080 -2080 -747 -997 -1772 -1803 -2899 -2280 -617 -261
-1355 -454 -2030 -529 -482 -54 -1024 -56 -1505 -6 -569 59 -1214 210 -1773
414 -1188 433 -2322 1262 -3107 2272 -631 811 -1040 1632 -1286 2581 -298
1149 -321 2239 -73 3358 225 1012 599 1846 1198 2670 82 114 90 124 222 290
533 673 1291 1311 2074 1747 559 311 1108 526 1742 682 199 49 311 73 568 121
167 31 587 81 597 71 6 -5 -20 -79 -35 -104 -5 -7 -72 -19 -179 -32 -1563
-178 -3003 -860 -4117 -1950 -939 -918 -1582 -2029 -1901 -3285 -126 -496
-188 -925 -216 -1487 -33 -680 71 -1508 281 -2233 386 -1328 1196 -2552 2276
-3436 927 -759 1983 -1253 3148 -1474 416 -78 720 -110 1156 -121 601 -15
1210 51 1805 196 1091 266 2033 747 2905 1483 357 301 765 736 1061 1132 1199
1599 1658 3637 1259 5591 -208 1015 -601 1911 -1204 2739 -658 906 -1544 1655
-2546 2154 -546 272 -1088 458 -1720 592 -165 35 -509 88 -670 104 -85 8 -179
17 -209 20 -47 5 -53 4 -47 -12 4 -9 14 -40 23 -67 9 -28 19 -54 22 -58 3 -4
78 -14 166 -23 1111 -113 2162 -485 3084 -1093 902 -594 1665 -1407 2198
-2342 800 -1401 1078 -3046 787 -4650 -40 -222 -108 -504 -174 -725 -540
-1804 -1820 -3329 -3500 -4170 -504 -253 -993 -429 -1535 -554 -345 -79 -710
-134 -1075 -162 -200 -16 -750 -15 -955 0 -1948 146 -3689 1061 -4901 2577
-878 1098 -1397 2450 -1484 3864 -13 210 -13 618 0 825 83 1358 553 2640 1362
3716 1122 1491 2778 2456 4620 2693 114 14 175 19 171 12 -31 -52 -226 -262
-393 -422 -467 -450 -632 -663 -749 -963 -41 -106 -91 -288 -91 -333 0 -23
-12 -30 -117 -73 -458 -186 -942 -472 -1338 -790 -1040 -837 -1735 -2009
-1960 -3309 -161 -926 -81 -1875 231 -2754 262 -736 678 -1406 1219 -1961 343
-353 704 -641 1110 -886 176 -106 556 -298 735 -370 895 -363 1841 -483 2805
-355 193 26 278 41 450 79 645 145 1286 420 1834 789 784 527 1414 1238 1835
2072 418 826 622 1776 577 2690 -23 480 -101 929 -236 1365 -335 1080 -981
2005 -1896 2717 -330 257 -813 536 -1204 698 -161 66 -396 152 -401 147 -3 -2
7 -46 20 -98 110 -418 94 -818 -49 -1248 -25 -75 -69 -183 -97 -241 -51 -103
-158 -271 -217 -340 l-30 -35 -1 393 c0 252 -4 400 -10 413 -10 17 -22 19
-125 19 l-115 0 0 605 0 606 24 47 c50 100 94 272 95 372 1 92 -20 271 -41
350 -11 41 -24 93 -29 115 -23 94 -139 285 -173 285 -14 0 -159 173 -164 196
-5 20 0 19 78 -21 39 -19 70 -33 70 -31 0 3 -35 23 -77 45 -108 57 -115 39
-42 -116 22 -45 39 -88 39 -95 0 -7 9 -40 19 -73 29 -94 61 -302 56 -370 -11
-150 -31 -229 -73 -290 -55 -78 -90 -111 -133 -125 -21 -7 -39 -19 -39 -25 0
-7 11 -56 24 -108 62 -242 160 -337 270 -262 l36 24 0 -564 0 -565 -113 0
c-75 0 -117 -4 -125 -12 -9 -9 -12 -110 -12 -394 l0 -381 53 -7 c170 -22 387
-84 637 -183 399 -158 677 -308 1155 -626 224 -149 338 -211 471 -254 l83 -27
25 23 c35 33 97 32 132 0 44 -41 133 -10 181 63 26 39 28 50 33 182 6 151 12
172 59 205 44 32 94 28 125 -9 33 -40 40 -79 40 -240 0 -156 -14 -232 -57
-313 -51 -97 -138 -156 -261 -178 -56 -9 -66 -14 -61 -28 15 -35 145 -393 145
-397 0 -2 -10 -4 -23 -4 -24 0 -17 -16 -143 325 -18 49 -26 61 -46 63 l-25 3
-6 -323 c-4 -178 -7 -936 -7 -1685 l0 -1363 651 0 651 0 -5 23 c-2 12 -78 218
-166 457 -89 239 -219 588 -288 775 -69 187 -131 354 -138 372 -13 30 -12 31
12 36 18 3 26 -1 32 -17 77 -208 290 -787 429 -1161 l178 -480 61 -3 62 -3 -6
-37 c-37 -266 -202 -486 -458 -615 -244 -122 -697 -217 -1036 -217 -340 0
-801 96 -1044 217 -170 85 -305 215 -379 366 -45 92 -76 193 -76 255 l0 32 54
0 53 0 62 163 c33 89 103 275 155 412 89 238 95 250 121 253 23 3 27 1 20 -15
-18 -45 -305 -806 -305 -809 0 -2 294 -4 654 -4 l654 0 6 693 c4 380 6 1140 4
1687 l-3 995 -21 3 c-13 2 -24 -4 -29 -15 -3 -10 -91 -243 -195 -518 -104
-275 -238 -633 -300 -795 -61 -162 -161 -429 -223 -592 -103 -276 -114 -298
-136 -298 -17 0 -22 4 -18 18 2 9 77 211 167 447 89 237 214 567 277 735 63
168 176 465 250 660 74 195 135 361 136 369 1 10 -26 21 -89 36 -50 13 -151
48 -225 80 -276 117 -324 136 -467 184 -235 79 -384 120 -592 161 -172 34
-436 72 -450 65 -3 -2 -5 -1367 -5 -3034 l1 -3031 -123 0 -123 0 0 -824 c0
-815 0 -824 -20 -829 -20 -5 -20 0 -20 824 l0 829 -130 0 -130 0 0 3040 c0
2425 -3 3040 -12 3040 -7 0 -56 -7 -108 -15 -96 -16 -136 -26 -287 -71 l-83
-25 0 -3433 c0 -2820 -2 -3435 -13 -3444 -7 -6 -64 -13 -128 -14 l-114 -3 0
-413 c0 -386 -1 -412 -17 -412 -17 0 -18 26 -18 415 l0 415 -118 0 c-78 0
-122 4 -130 12 -9 9 -12 787 -12 3439 l0 3428 -108 35 c-98 32 -241 65 -349
80 l-43 6 0 -3040 0 -3040 -120 0 -120 0 0 -825 c0 -779 -1 -825 -17 -825 -17
0 -18 45 -15 825 l2 825 -135 0 -135 0 0 3035 c0 1669 -1 3035 -3 3035 -1 0
-60 -7 -131 -15 -302 -35 -591 -102 -911 -209 -188 -64 -270 -96 -499 -196
-65 -28 -168 -63 -227 -78 -60 -15 -109 -30 -109 -34 0 -5 6 -8 13 -8 12 0
207 -510 207 -540 -1 -20 -29 -69 -30 -50 0 18 -209 572 -220 583 -4 5 -18 6
-31 2 l-22 -7 6 -604 6 -603 -24 -58 -24 -58 -1 663 0 662 -29 0 c-27 0 -30
-5 -69 -112 -22 -62 -67 -185 -100 -273 -33 -88 -101 -272 -151 -410 -51 -137
-96 -256 -100 -263 -6 -11 -11 -6 -19 16 -10 29 6 76 172 529 101 274 187 508
190 520 6 19 2 22 -51 33 -84 17 -136 43 -191 94 -93 87 -128 217 -120 448 6
176 27 218 109 218 23 0 41 -10 70 -39 l39 -39 0 -118 c0 -144 10 -184 59
-236 48 -52 127 -77 151 -47 26 32 73 42 114 25 20 -8 36 -20 36 -25 0 -18 34
-13 112 15 125 45 255 117 458 251 469 311 748 464 1115 611 279 111 447 159
728 207 l37 6 -2 387 -3 387 -122 3 -123 3 0 976 0 976 57 61 c31 34 97 104
147 157 133 141 217 236 254 288 18 25 36 48 40 51 22 15 78 105 132 215 112
225 168 603 126 855 -31 184 -101 350 -202 483 -24 31 -44 59 -44 62 0 10 167
-94 248 -155z m-816 -3020 l-2 -950 -115 0 c-103 0 -115 -2 -125 -19 -6 -13
-10 -143 -10 -353 l0 -333 -21 25 c-52 65 -145 214 -185 298 -84 178 -138 360
-170 582 -21 146 -24 474 -6 580 57 324 189 591 441 900 71 86 189 220 195
220 0 0 0 -427 -2 -950z m4869 -4275 c48 -132 91 -248 94 -257 6 -14 2 -18
-18 -18 -28 0 -20 -17 -112 233 -57 156 -65 187 -64 245 0 37 3 60 6 52 3 -8
45 -123 94 -255z m-7804 -561 l-66 -179 -1 67 c0 57 8 89 52 208 52 141 53
141 67 112 13 -28 10 -40 -52 -208z m1521 -139 c27 -71 111 -294 187 -495 75
-201 193 -512 261 -692 68 -180 124 -332 124 -338 0 -6 26 -10 61 -10 l61 0
-7 -52 c-37 -274 -233 -510 -526 -634 -244 -103 -673 -184 -974 -184 -302 0
-760 90 -988 194 -258 117 -427 306 -488 543 -10 42 -19 89 -19 105 0 28 1 28
58 28 l59 0 108 293 c204 553 197 537 222 537 13 0 23 -3 23 -8 0 -4 -14 -43
-31 -87 -41 -107 -269 -726 -269 -731 0 -2 295 -4 656 -4 l656 0 -3 638 c-2
633 -2 637 19 682 l22 45 0 -682 0 -683 655 0 c426 0 655 3 655 10 0 5 -18 58
-41 117 -22 60 -106 281 -186 493 -80 212 -196 521 -259 688 -102 270 -114
309 -113 365 l0 62 14 -35 c8 -19 36 -93 63 -165z"/>
<path d="M9561 15664 c0 -11 3 -14 6 -6 3 7 2 16 -1 19 -3 4 -6 -2 -5 -13z"/>
<path d="M9571 15624 c0 -11 3 -14 6 -6 3 7 2 16 -1 19 -3 4 -6 -2 -5 -13z"/>
<path d="M9581 15584 c0 -11 3 -14 6 -6 3 7 2 16 -1 19 -3 4 -6 -2 -5 -13z"/>
<path d="M9591 15544 c0 -11 3 -14 6 -6 3 7 2 16 -1 19 -3 4 -6 -2 -5 -13z"/>
<path d="M9980 15457 c0 -3 12 -12 26 -22 15 -9 23 -12 20 -6 -7 11 -46 35
-46 28z"/>
<path d="M10040 15416 c0 -2 8 -10 18 -17 15 -13 16 -12 3 4 -13 16 -21 21
-21 13z"/>
<path d="M10110 15366 c0 -2 8 -10 18 -17 15 -13 16 -12 3 4 -13 16 -21 21
-21 13z"/>
<path d="M9641 15334 c0 -11 3 -14 6 -6 3 7 2 16 -1 19 -3 4 -6 -2 -5 -13z"/>
<path d="M10170 15315 c13 -14 26 -25 28 -25 3 0 -5 11 -18 25 -13 14 -26 25
-28 25 -3 0 5 -11 18 -25z"/>
<path d="M9652 15280 c0 -14 2 -19 5 -12 2 6 2 18 0 25 -3 6 -5 1 -5 -13z"/>
<path d="M10230 15265 c13 -14 26 -25 28 -25 3 0 -5 11 -18 25 -13 14 -26 25
-28 25 -3 0 5 -11 18 -25z"/>
<path d="M9662 15195 c0 -16 2 -22 5 -12 2 9 2 23 0 30 -3 6 -5 -1 -5 -18z"/>
<path d="M10300 15206 c0 -2 8 -10 18 -17 15 -13 16 -12 3 4 -13 16 -21 21
-21 13z"/>
<path d="M10355 15140 c10 -11 20 -20 23 -20 3 0 -3 9 -13 20 -10 11 -20 20
-23 20 -3 0 3 -9 13 -20z"/>
<path d="M9672 15115 c0 -16 2 -22 5 -12 2 9 2 23 0 30 -3 6 -5 -1 -5 -18z"/>
<path d="M10881 14847 c-61 -161 -111 -297 -111 -302 0 -6 32 -22 71 -37 l70
-26 11 26 c6 15 37 97 70 182 l59 155 -7 -85 c-13 -163 -20 -305 -17 -316 3
-9 86 -44 104 -44 3 0 59 67 124 150 66 82 120 148 122 147 1 -2 -27 -79 -62
-172 -36 -93 -65 -170 -65 -171 0 -8 144 -54 149 -48 16 19 223 575 218 588
-8 21 -200 88 -209 73 -19 -31 -223 -286 -226 -282 -2 2 1 85 8 186 6 100 8
185 3 189 -6 7 -189 80 -198 80 -1 0 -52 -132 -114 -293z"/>
<path d="M10390 15096 c0 -2 8 -10 18 -17 15 -13 16 -12 3 4 -13 16 -21 21
-21 13z"/>
<path d="M9684 14910 c0 -74 1 -105 3 -67 2 37 2 97 0 135 -2 37 -3 6 -3 -68z"/>
<path d="M6455 14946 c-96 -30 -163 -89 -204 -175 -20 -45 -25 -72 -26 -136 0
-69 4 -89 31 -145 37 -77 89 -131 164 -168 77 -38 190 -38 271 0 125 57 192
156 193 281 0 65 -23 168 -43 190 -4 4 -21 1 -37 -7 -16 -8 -90 -40 -164 -71
-74 -32 -137 -59 -139 -60 -6 -6 43 -125 52 -125 4 0 40 14 79 30 39 17 73 28
75 26 2 -2 -5 -23 -17 -46 -15 -30 -33 -47 -63 -61 -53 -23 -81 -23 -134 0
-59 27 -97 87 -97 156 -1 60 18 94 75 134 30 20 42 22 103 17 62 -5 78 -2 143
25 40 17 73 35 73 39 0 19 -83 78 -131 93 -60 20 -147 21 -204 3z"/>
<path d="M11939 14587 c-58 -51 -174 -150 -257 -220 -84 -71 -152 -130 -152
-132 0 -2 34 -22 75 -45 l75 -42 40 32 40 31 85 -46 85 -47 -6 -51 -6 -52 74
-37 c41 -21 77 -38 80 -38 3 0 8 19 12 43 3 23 21 159 41 302 19 143 38 276
41 296 5 35 4 36 -54 67 -33 18 -61 32 -63 31 -2 0 -52 -42 -110 -92z m45
-214 c-8 -38 -16 -78 -19 -90 l-5 -22 -45 26 c-25 13 -45 28 -45 31 0 5 119
119 126 122 1 0 -5 -30 -12 -67z"/>
<path d="M10601 14654 c0 -11 3 -14 6 -6 3 7 2 16 -1 19 -3 4 -6 -2 -5 -13z"/>
<path d="M5765 14600 c-33 -22 -61 -44 -63 -49 -2 -5 34 -69 79 -143 44 -73
83 -136 85 -140 3 -4 -33 12 -78 34 -46 22 -129 62 -186 89 l-102 48 -60 -37
c-33 -20 -60 -41 -60 -45 0 -7 314 -532 325 -545 5 -6 135 79 135 88 0 4 -30
57 -66 116 -36 60 -75 123 -86 141 l-19 32 59 -29 c32 -15 110 -52 173 -80 63
-29 119 -56 125 -61 13 -10 134 56 134 73 0 12 -323 548 -330 547 -3 0 -32
-18 -65 -39z"/>
<path d="M10611 14614 c0 -11 3 -14 6 -6 3 7 2 16 -1 19 -3 4 -6 -2 -5 -13z"/>
<path d="M9692 14580 c0 -14 2 -19 5 -12 2 6 2 18 0 25 -3 6 -5 1 -5 -13z"/>
<path d="M10621 14564 c0 -11 3 -14 6 -6 3 7 2 16 -1 19 -3 4 -6 -2 -5 -13z"/>
<path d="M9702 14490 c0 -19 2 -27 5 -17 2 9 2 25 0 35 -3 9 -5 1 -5 -18z"/>
<path d="M10661 14384 c0 -11 3 -14 6 -6 3 7 2 16 -1 19 -3 4 -6 -2 -5 -13z"/>
<path d="M12388 14117 c-98 -139 -179 -256 -180 -262 -3 -9 109 -94 124 -95 4
0 30 33 58 73 l51 72 -6 -110 -6 -110 76 -52 c41 -29 79 -53 84 -53 4 0 6 58
3 129 l-5 129 46 -5 c83 -10 162 35 211 121 50 86 42 159 -26 232 -39 42 -228
184 -245 184 -4 -1 -88 -114 -185 -253z m312 -57 c0 -15 -11 -36 -25 -50 -24
-23 -25 -23 -69 -6 -69 27 -71 34 -24 99 l42 57 38 -37 c25 -24 38 -46 38 -63z"/>
<path d="M10671 14334 c0 -11 3 -14 6 -6 3 7 2 16 -1 19 -3 4 -6 -2 -5 -13z"/>
<path d="M10682 14265 c0 -16 2 -22 5 -12 2 9 2 23 0 30 -3 6 -5 -1 -5 -18z"/>
<path d="M10692 14190 c0 -14 2 -19 5 -12 2 6 2 18 0 25 -3 6 -5 1 -5 -13z"/>
<path d="M5030 14114 c-30 -24 -55 -48 -55 -53 0 -8 292 -398 360 -482 l22
-26 59 44 c32 24 60 48 62 53 2 4 -56 86 -129 182 -72 95 -157 208 -188 250
-31 42 -60 77 -66 77 -5 0 -35 -20 -65 -45z"/>
<path d="M10701 14124 c0 -11 3 -14 6 -6 3 7 2 16 -1 19 -3 4 -6 -2 -5 -13z"/>
<path d="M12962 13679 l-213 -239 38 -32 c21 -18 48 -43 61 -56 l23 -23 47 53
c26 29 66 73 88 97 l42 45 -23 -115 c-41 -204 -45 -175 36 -248 39 -35 74 -60
78 -55 4 5 18 79 30 164 12 85 25 165 27 176 5 18 31 28 190 69 101 26 184 51
184 56 0 4 -6 12 -14 16 -8 4 -37 30 -65 56 l-51 48 -160 -44 -159 -44 22 27
c12 15 53 62 91 104 l68 76 -57 52 c-32 29 -60 54 -64 55 -3 0 -102 -106 -219
-238z"/>
<path d="M4692 13847 l-62 -62 24 -130 c14 -71 28 -145 32 -163 7 -35 3 -31
-167 152 -17 19 -19 18 -79 -34 -33 -29 -59 -56 -58 -60 2 -4 87 -97 189 -206
102 -110 199 -214 215 -232 l29 -33 58 51 c31 29 57 56 57 62 0 5 -36 48 -80
96 -44 47 -79 87 -77 88 2 2 65 -14 141 -36 l138 -39 69 61 c38 34 69 65 69
70 0 4 -17 12 -37 17 -21 5 -101 26 -178 46 l-141 37 -28 167 c-32 194 -36
211 -45 210 -3 0 -34 -28 -69 -62z"/>
<path d="M13491 13196 c-129 -117 -234 -216 -233 -220 1 -13 216 -254 227
-255 6 0 33 20 60 44 56 50 58 42 -21 132 l-50 58 36 32 37 33 62 -70 62 -70
55 48 c29 26 54 50 54 54 0 4 -28 37 -62 74 l-62 66 34 29 c19 16 37 28 40 28
3 0 30 -29 60 -64 30 -35 60 -64 65 -64 10 -1 105 86 105 96 0 3 -37 47 -82
97 -46 51 -97 108 -115 129 -18 20 -34 37 -35 36 -2 0 -108 -96 -237 -213z"/>
<path d="M3998 13132 c-21 -26 -38 -51 -38 -57 0 -15 317 -589 327 -592 4 -1
32 27 61 62 l54 65 -24 43 -25 44 65 75 64 76 45 -16 45 -17 59 65 c32 36 59
67 59 70 0 4 -589 211 -645 226 -5 2 -27 -18 -47 -44z m258 -188 c44 -20 81
-37 83 -40 2 -2 -12 -21 -31 -42 l-35 -38 -51 78 c-28 43 -49 78 -48 78 2 0
39 -16 82 -36z"/>
<path d="M14070 12914 c-25 -20 -52 -40 -60 -44 -12 -7 -9 -16 18 -55 18 -25
30 -50 27 -55 -3 -5 -89 -71 -191 -146 -118 -88 -183 -142 -180 -151 3 -7 24
-38 47 -68 l41 -55 52 37 c28 21 116 86 196 146 l145 108 18 -25 c9 -13 26
-35 36 -47 l18 -22 59 42 c32 23 59 46 59 50 0 9 -228 321 -235 320 -3 0 -25
-16 -50 -35z"/>
<path d="M3576 12579 c-32 -51 -53 -95 -49 -102 4 -7 60 -74 125 -149 65 -76
116 -138 114 -138 -6 0 -345 90 -359 96 -8 3 -35 -30 -70 -86 -31 -49 -57 -93
-57 -97 0 -8 516 -336 535 -341 9 -2 91 127 83 132 -1 1 -77 49 -168 105 -91
57 -154 100 -141 96 76 -23 168 -48 252 -70 53 -14 103 -27 111 -30 10 -4 25
12 46 45 l32 52 -134 158 -135 158 166 -105 c91 -58 169 -101 173 -96 4 4 24
33 44 63 28 43 33 57 23 66 -14 14 -523 334 -530 334 -3 0 -30 -41 -61 -91z"/>
<path d="M14345 12351 c-85 -39 -107 -92 -103 -244 l3 -111 -27 -15 c-24 -14
-28 -14 -47 3 -29 26 -27 70 3 93 l25 18 -41 67 -40 67 -39 -26 c-83 -55 -110
-151 -68 -243 43 -94 111 -142 205 -143 55 -1 70 3 106 29 72 50 83 80 83 222
0 98 3 125 15 132 22 14 36 12 54 -6 20 -19 20 -43 2 -70 -13 -18 -11 -26 22
-82 20 -34 40 -62 44 -62 4 0 26 18 47 39 82 82 74 197 -21 288 -65 62 -148
79 -223 44z"/>
<path d="M8965 11961 c-41 -76 -34 -72 -167 -96 -21 -4 -38 -10 -38 -14 1 -3
26 -31 56 -61 l55 -55 -6 -70 c-3 -38 -8 -78 -11 -87 -4 -15 10 -11 76 19 l82
37 75 -38 76 -37 -6 70 c-4 38 -9 75 -12 83 -3 7 20 41 50 75 30 33 55 63 55
66 0 2 -36 12 -80 21 l-81 18 -37 69 c-20 38 -40 69 -43 69 -3 0 -23 -31 -44
-69z"/>
<path d="M3214 11163 c-12 -2 -34 -17 -49 -33 -32 -33 -45 -112 -25 -149 18
-35 70 -61 121 -61 41 0 51 4 77 35 40 44 49 92 28 137 -24 51 -93 83 -152 71z"/>
<path d="M14671 11113 c-64 -32 -87 -101 -55 -168 55 -117 234 -73 234 57 0
63 -62 128 -122 128 -13 0 -38 -8 -57 -17z"/>
<path d="M3044 10002 c-6 -53 -8 -58 -28 -55 -11 2 -119 19 -240 39 -120 19
-219 34 -220 32 -4 -5 -26 -161 -24 -163 2 -1 100 -17 218 -34 280 -42 262
-37 256 -72 -4 -16 -8 -42 -12 -58 -6 -31 -7 -30 106 -46 l45 -7 29 179 c15
98 29 187 30 197 1 21 -18 29 -101 40 l-52 7 -7 -59z"/>
<path d="M15062 10049 c-144 -25 -242 -125 -258 -263 -5 -46 27 -310 39 -323
3 -2 119 11 259 31 139 20 279 39 311 42 56 7 57 7 57 38 -1 17 -9 85 -19 151
-27 180 -66 252 -164 299 -60 29 -148 39 -225 25z m168 -184 c30 -27 58 -84
66 -133 l6 -40 -63 -10 c-35 -6 -102 -16 -149 -22 -47 -6 -95 -13 -107 -15
-22 -5 -23 -3 -23 67 0 96 21 136 81 160 59 24 159 20 189 -7z"/>
<path d="M2486 9497 c-3 -16 -6 -53 -6 -82 l0 -53 92 -7 93 -7 -96 -49 -96
-48 -7 -96 c-4 -54 -5 -99 -2 -102 2 -3 53 27 113 65 l108 70 25 -46 c38 -70
99 -104 188 -104 98 -1 147 27 185 104 25 50 30 73 38 199 5 78 8 143 6 145
-2 2 -127 10 -278 19 -151 8 -293 16 -316 19 -39 3 -41 2 -47 -27z m453 -163
c23 -5 30 -11 27 -23 -2 -9 -7 -33 -11 -54 -7 -42 -32 -59 -77 -50 -31 6 -48
39 -48 93 0 40 0 40 39 40 21 0 53 -3 70 -6z"/>
<path d="M15346 9185 l7 -95 -52 0 -51 0 0 53 c0 28 -3 69 -6 90 l-7 37 -74 0
-75 0 4 -95 3 -95 -47 0 -48 0 0 96 0 97 -72 -7 c-39 -3 -74 -8 -76 -10 -2 -3
0 -82 4 -176 l7 -171 216 6 c119 3 262 8 319 11 l102 6 0 97 c0 54 -3 132 -6
174 l-7 77 -74 0 -74 0 7 -95z"/>
<path d="M2462 8813 l3 -87 48 -15 c45 -14 47 -16 47 -50 0 -20 3 -65 6 -101
l6 -65 -43 -15 c-37 -13 -45 -20 -47 -45 -6 -53 9 -157 21 -151 7 2 147 65
312 139 l300 134 -1 62 c-1 34 -5 66 -10 70 -8 8 -623 211 -638 211 -4 0 -5
-39 -4 -87z m352 -183 c76 -18 78 -16 -36 -55 l-66 -23 -4 54 c-3 50 -2 53 17
47 11 -4 51 -14 89 -23z"/>
<path d="M15347 8669 c-4 -30 -7 -71 -7 -91 0 -30 -4 -38 -17 -38 -10 0 -119
7 -242 15 -124 8 -227 12 -230 10 -2 -3 -6 -40 -9 -83 l-4 -79 118 -7 c66 -4
209 -13 319 -20 110 -7 201 -13 201 -12 2 2 23 340 21 342 -1 1 -34 5 -73 9
l-71 7 -6 -53z"/>
<path d="M2820 8157 c-162 -28 -297 -52 -299 -54 -5 -4 14 -152 21 -158 4 -4
177 23 283 43 l50 10 -149 -142 -149 -141 13 -73 c10 -55 17 -72 27 -68 8 3
139 26 291 51 152 25 289 48 303 51 l26 5 -13 76 c-8 42 -16 78 -19 81 -4 5
-244 -31 -305 -46 -18 -4 0 18 65 79 50 46 116 109 148 139 l58 55 -12 73 c-9
55 -16 72 -28 71 -9 -1 -149 -24 -311 -52z"/>
<path d="M14905 8175 c-81 -44 -108 -97 -136 -273 -12 -73 -19 -135 -17 -137
2 -3 76 -16 164 -30 87 -14 226 -37 308 -51 82 -13 150 -23 152 -21 6 6 24
108 24 137 0 26 -2 27 -93 39 l-94 13 1 92 c1 117 -23 173 -91 213 -58 34
-171 43 -218 18z m151 -180 c15 -23 16 -97 1 -111 -3 -3 -34 0 -70 7 l-65 12
13 44 c18 59 31 73 71 73 25 0 38 -7 50 -25z"/>
<path d="M14676 7474 c-10 -41 -16 -77 -15 -79 9 -7 610 -157 615 -153 6 7 46
150 42 153 -5 5 -597 155 -611 155 -8 0 -20 -28 -31 -76z"/>
<path d="M3080 7445 c-72 -33 -104 -84 -121 -197 -6 -40 -17 -83 -26 -96 -20
-32 -62 -26 -83 11 -14 27 -14 29 12 52 15 12 32 25 39 27 9 3 6 24 -12 81
l-24 77 -50 -23 c-98 -46 -137 -122 -115 -222 23 -101 73 -158 166 -185 59
-18 141 7 182 55 33 37 45 71 63 174 11 59 35 101 58 101 18 0 41 -31 41 -55
0 -13 -10 -31 -21 -39 l-22 -15 19 -70 c10 -39 22 -71 26 -71 21 0 88 42 111
70 67 79 36 236 -61 304 -51 36 -128 45 -182 21z"/>
<path d="M10930 7235 c0 -2 20 -38 45 -78 78 -129 237 -260 375 -310 175 -63
440 -124 440 -101 0 5 -27 20 -60 32 -65 26 -187 103 -270 173 -130 108 -157
139 -192 215 l-33 74 -152 0 c-84 0 -153 -2 -153 -5z"/>
<path d="M14693 7121 c-134 -46 -217 -170 -216 -321 0 -83 37 -162 105 -226
74 -69 125 -89 233 -89 79 0 96 4 143 28 164 86 232 280 152 437 -24 47 -97
130 -114 130 -6 0 -24 -36 -39 -79 l-28 -79 21 -34 c28 -47 27 -124 -3 -169
-44 -67 -134 -87 -211 -49 -57 28 -79 63 -84 130 -6 87 27 137 111 165 25 8
34 22 58 85 16 41 29 78 29 82 0 15 -105 7 -157 -11z"/>
<path d="M3153 6811 c-155 -64 -285 -119 -288 -123 -8 -8 44 -148 55 -148 3 0
46 16 94 36 49 19 89 34 91 32 1 -2 14 -26 29 -55 31 -63 79 -119 118 -139 43
-22 117 -19 177 6 92 40 139 118 127 212 -8 61 -101 300 -115 297 -3 -1 -133
-54 -288 -118z m231 -142 c18 -58 10 -84 -29 -99 -39 -15 -64 -1 -90 50 l-24
48 62 26 c34 14 63 25 64 26 1 0 9 -23 17 -51z"/>
<path d="M14287 6391 l-38 -69 151 -79 150 -79 -195 -19 c-107 -10 -199 -21
-204 -24 -5 -3 -22 -34 -40 -68 l-31 -62 228 -117 c125 -64 250 -130 278 -145
28 -16 56 -29 61 -29 10 0 79 137 72 144 -2 2 -68 37 -147 78 -166 87 -177 75
96 104 l164 18 31 62 c17 35 29 65 26 67 -10 9 -549 287 -557 287 -4 0 -25
-31 -45 -69z"/>
<path d="M3749 6196 c-2 -2 -145 -21 -317 -42 -172 -21 -317 -41 -323 -44 -6
-4 6 -37 31 -83 45 -83 37 -79 122 -62 12 2 29 -19 60 -79 24 -44 45 -85 47
-89 2 -5 -12 -24 -30 -43 l-33 -34 41 -76 c22 -41 44 -74 49 -73 5 2 107 117
227 256 l218 253 -32 60 c-28 53 -46 70 -60 56z m-176 -198 c-66 -75 -93 -102
-97 -97 -8 9 -47 91 -44 94 2 1 39 9 83 18 44 8 82 15 84 16 1 1 -10 -14 -26
-31z"/>
<path d="M13921 5745 c-24 -37 -41 -68 -39 -70 2 -1 113 -73 248 -160 135 -86
252 -163 261 -171 8 -8 18 -14 21 -14 8 0 88 124 88 136 -1 5 -38 32 -83 60
-45 28 -160 102 -255 163 -95 62 -179 114 -186 117 -8 3 -29 -20 -55 -61z"/>
<path d="M3902 5693 c-61 -43 -179 -124 -261 -181 l-150 -103 42 -64 c23 -36
46 -65 51 -65 5 0 42 23 82 50 l73 50 -46 -99 -46 -100 54 -80 c30 -44 57 -80
60 -81 4 0 26 54 49 120 l42 119 32 -16 c42 -23 141 -23 183 0 47 25 102 75
120 110 20 40 20 112 -1 162 -17 40 -156 254 -166 255 -3 0 -56 -35 -118 -77z
m125 -212 c13 -31 13 -36 -5 -60 -31 -42 -71 -40 -115 6 -21 20 -37 40 -37 43
0 3 26 22 58 42 64 41 68 40 99 -31z"/>
<path d="M13704 5398 c-30 -21 -79 -74 -131 -142 -46 -60 -83 -111 -83 -115 1
-8 497 -381 507 -381 14 1 95 119 89 129 -4 5 -35 31 -71 57 -36 26 -64 48
-62 49 1 1 49 -4 107 -10 58 -7 105 -12 106 -11 36 46 114 155 114 159 0 4
-57 7 -127 7 l-128 0 0 69 c0 61 -4 74 -30 113 -44 62 -125 108 -191 108 -42
0 -61 -6 -100 -32z m143 -160 c13 -12 23 -28 23 -35 0 -18 -37 -90 -50 -98
-10 -6 -110 64 -110 78 0 19 69 77 91 77 12 0 33 -10 46 -22z"/>
<path d="M4145 5040 c-126 -109 -230 -204 -230 -209 0 -13 207 -260 218 -260
11 -1 107 82 107 92 0 5 -26 38 -57 74 l-56 64 35 36 35 35 59 -70 c33 -39 63
-71 68 -71 9 -1 98 77 104 91 2 5 -18 34 -45 66 -69 79 -68 78 -32 110 l33 29
59 -68 c32 -38 62 -69 65 -69 9 1 28 15 76 58 l37 32 -111 130 c-61 72 -117
130 -123 129 -7 0 -115 -90 -242 -199z"/>
<path d="M13295 4909 c-22 -10 -88 -66 -145 -124 l-105 -106 75 -71 c41 -40
143 -139 226 -220 83 -81 155 -148 160 -148 5 0 34 25 64 56 l55 56 -73 68
-73 68 50 66 c70 92 85 153 55 224 -19 46 -56 86 -113 123 -54 35 -116 38
-176 8z m100 -155 c8 -4 22 -18 30 -33 12 -23 11 -31 -2 -58 -8 -17 -24 -39
-34 -49 -19 -17 -21 -16 -71 33 l-51 51 43 31 c44 32 57 36 85 25z"/>
<path d="M4531 4598 l-214 -230 54 -54 c29 -30 56 -54 60 -54 7 0 135 130 200
204 l35 38 -33 -203 -34 -203 53 -48 52 -49 31 33 c43 44 353 376 383 409 l23
26 -58 57 -58 56 -39 -43 c-22 -23 -74 -78 -116 -122 l-76 -81 34 199 35 198
-54 50 c-29 27 -56 49 -59 48 -3 -1 -101 -104 -219 -231z"/>
<path d="M5212 4308 c-43 -60 -43 -60 -22 -75 12 -8 32 -25 46 -37 l25 -21
-145 -192 -145 -192 65 -51 c36 -29 67 -50 68 -48 5 5 289 383 290 385 1 1 21
-14 45 -33 24 -18 47 -34 50 -34 13 1 93 122 85 129 -5 5 -71 54 -146 110 -75
56 -140 106 -143 111 -13 20 -31 7 -73 -52z"/>
<path d="M12375 4141 c-80 -49 -114 -120 -94 -196 13 -48 70 -111 115 -125 31
-10 32 -13 23 -43 -39 -138 36 -249 170 -248 99 0 184 61 226 162 l19 46 49
-9 c27 -5 50 -8 52 -6 2 2 6 35 10 75 l7 71 -55 7 -55 7 -7 52 c-8 56 -32 156
-40 164 -4 5 -112 -66 -121 -79 -2 -4 0 -28 5 -54 l9 -47 -30 6 c-17 3 -34 6
-39 6 -5 0 -9 28 -9 63 0 72 -22 116 -72 147 -43 26 -122 27 -163 1z m93 -123
c7 -7 12 -27 12 -45 l0 -34 -29 15 c-34 18 -46 43 -30 62 14 17 31 18 47 2z
m212 -260 c0 -5 -7 -22 -15 -38 -36 -71 -131 -33 -111 44 5 21 8 22 66 12 33
-5 60 -14 60 -18z"/>
<path d="M11528 3632 l-157 -77 137 -287 c75 -158 140 -287 143 -288 3 0 76
34 162 75 l157 76 -32 64 c-18 36 -36 65 -40 65 -5 0 -44 -18 -87 -40 l-79
-39 -19 47 -20 48 83 38 c46 21 84 40 84 43 0 4 -60 126 -65 131 -2 2 -39 -15
-84 -37 -44 -23 -82 -41 -84 -41 -6 0 -40 80 -36 84 2 2 39 20 82 40 42 19 77
40 77 46 0 11 -58 131 -63 129 -1 0 -73 -35 -159 -77z"/>
<path d="M6251 3360 c-73 -160 -132 -292 -130 -294 9 -9 294 -136 304 -136 10
0 60 102 60 123 0 5 -35 25 -77 45 l-77 37 99 214 c55 118 100 220 100 225 0
9 -68 44 -139 73 -3 2 -66 -128 -140 -287z"/>
<path d="M5422 3558 l-41 -63 25 -20 c26 -20 26 -20 6 -39 -17 -14 -24 -16
-42 -6 -24 13 -26 11 -52 -34 -13 -23 6 -41 59 -55 60 -17 89 2 154 101 32 50
59 93 59 97 0 6 -112 81 -122 81 -3 0 -24 -28 -46 -62z"/>
<path d="M11040 3423 c-96 -37 -177 -68 -179 -69 -5 -4 39 -126 50 -138 5 -5
29 0 59 12 47 20 51 20 58 4 3 -9 41 -109 83 -222 87 -232 75 -220 181 -180
56 21 57 22 47 48 -57 148 -159 425 -157 427 2 1 26 10 53 20 28 10 51 19 53
20 8 6 -52 145 -62 144 -6 0 -90 -30 -186 -66z"/>
<path d="M6752 3153 c-56 -159 -102 -294 -104 -301 -2 -11 179 -85 307 -126
18 -5 23 3 44 64 13 39 22 72 20 74 -2 2 -41 16 -86 30 -46 15 -83 30 -83 34
0 3 7 25 16 49 l16 42 85 -31 c47 -17 88 -27 92 -22 5 5 18 37 29 71 l20 61
-88 32 -88 32 14 42 15 43 81 -29 c45 -16 86 -27 91 -25 9 3 59 128 54 134 -4
3 -321 113 -328 113 -3 0 -51 -129 -107 -287z"/>
<path d="M10477 3245 c-27 -7 -50 -15 -52 -17 -6 -6 -75 -672 -70 -676 5 -5
139 28 156 39 6 3 14 27 16 53 5 44 7 46 47 57 22 6 63 17 90 25 65 18 61 20
87 -23 12 -21 23 -39 25 -41 4 -6 174 43 172 50 -11 31 -396 548 -408 547 -8
0 -37 -7 -63 -14z m163 -376 c0 -4 -16 -10 -36 -13 -19 -4 -42 -10 -50 -13
-16 -6 -18 26 -7 115 l6 54 44 -68 c23 -37 43 -71 43 -75z"/>
<path d="M7452 3190 c-72 -37 -125 -92 -160 -169 -35 -75 -37 -193 -5 -263 47
-103 122 -165 233 -194 154 -39 294 30 364 181 13 27 27 64 30 81 l7 31 -158
38 c-87 20 -168 39 -180 42 -19 4 -23 -1 -33 -38 -24 -89 -25 -89 68 -112 l83
-20 -32 -21 c-41 -25 -115 -25 -158 0 -46 27 -85 111 -76 162 14 84 76 142
152 142 57 0 84 -12 126 -55 28 -28 49 -40 99 -51 35 -8 74 -16 87 -20 22 -5
23 -3 16 32 -18 101 -108 205 -208 243 -88 32 -177 29 -255 -9z"/>
<path d="M9986 3134 c-55 -7 -103 -17 -106 -21 -4 -5 -12 -37 -18 -73 -25
-148 -52 -293 -54 -296 -2 -1 -39 76 -83 171 -69 152 -82 174 -100 170 -11 -3
-58 -10 -105 -16 -47 -6 -87 -13 -89 -15 -3 -2 1 -44 7 -92 7 -48 26 -188 42
-311 16 -123 31 -226 33 -227 5 -5 142 17 148 24 4 4 -4 81 -17 172 -13 91
-24 172 -24 180 0 8 37 -65 83 -164 l82 -178 55 6 c30 4 57 12 61 18 4 6 10
34 14 62 3 28 15 94 25 146 10 52 21 113 25 135 7 33 12 9 32 -145 13 -101 25
-186 28 -188 2 -2 38 2 80 9 l76 12 -6 51 c-4 28 -20 143 -35 256 -16 113 -32
233 -36 268 -4 34 -9 61 -13 61 -3 -1 -51 -7 -105 -15z"/>
<path d="M8156 3089 c-12 -38 -76 -612 -69 -619 4 -4 40 -11 79 -15 70 -7 71
-6 78 18 14 58 76 601 69 608 -4 4 -41 11 -80 15 -58 5 -74 4 -77 -7z"/>
<path d="M8490 2991 l0 -81 56 0 57 0 -7 -167 c-3 -93 -9 -202 -12 -244 l-6
-76 78 -6 c44 -2 82 -2 86 2 5 5 28 377 28 458 0 20 4 21 60 16 l60 -6 0 59
c0 33 3 69 6 80 6 21 3 22 -143 28 -81 4 -174 9 -205 12 l-58 6 0 -81z"/>
<path d="M9063 2808 c4 -133 7 -277 7 -320 l0 -78 85 0 86 0 -6 168 c-3 92 -8
236 -11 320 l-6 152 -81 0 -80 0 6 -242z"/>
<path d="M4396 7163 c89 -152 229 -264 404 -325 117 -40 308 -90 365 -95 72
-7 67 5 -21 40 -77 31 -180 101 -308 209 -98 82 -114 102 -155 198 l-22 50
-154 0 -155 0 46 -77z"/>
</g>
</svg>
